<?xml version="1.0" encoding="UTF-8"?>
<svg width="20px" height="17px" viewBox="0 0 20 17" version="1.1" xmlns="http://www.w3.org/2000/svg" xmlns:xlink="http://www.w3.org/1999/xlink">
    <title>icon_slide_save</title>
    <g id="biltyweb" stroke="none" stroke-width="1" fill="none" fill-rule="evenodd">
        <g id="slider" transform="translate(-23.000000, -390.000000)" fill="#FFFFFF">
            <path d="M36.1275826,390 C36.3163406,390 36.4972633,390.077719 36.6311746,390.214828 L39.2645264,392.926205 C39.3984377,393.063314 39.4732286,393.249547 39.4732286,393.444579 L39.4732732,395.359426 C40.8051875,396.2691 41.6849953,397.826448 41.6849953,399.591592 C41.6849953,400.731524 41.318063,401.784918 40.6993945,402.633197 L42.7944612,404.789969 C43.0685129,405.072078 43.0685129,405.528068 42.7944612,405.810176 C42.6577857,405.95087 42.4783554,406.021577 42.298925,406.021577 C42.1194947,406.021577 41.9400644,405.95087 41.8033889,405.810176 L39.7081401,403.653521 C39.6299182,403.713965 39.5499011,403.772074 39.4681874,403.827748 C39.4719596,403.852894 39.4732286,403.878141 39.4732286,403.903692 L39.4732286,406.266799 C39.4732286,406.672259 39.154833,407 38.7609343,407 L23.7122942,407 C23.3183955,407 23,406.672259 23,406.266799 L23,390.733201 C23,390.328474 23.3183955,390 23.7122942,390 L36.1275826,390 Z M27.219,391.466 L24.4245885,391.466402 L24.4245885,405.533598 L26.5991396,405.534136 C26.5753254,405.463791 26.5624409,405.388556 26.5624409,405.31034 L26.5624409,398.611202 C26.5624409,398.217888 26.8882435,397.899965 27.2913058,397.899965 L32.1041028,397.899474 C32.4995721,396.751274 33.2857421,395.79185 34.2973136,395.191353 L27.9135722,395.192761 C27.5299954,395.192761 27.2199433,394.871507 27.2199433,394.474071 L27.219,391.466 Z M31.8293068,399.322403 L28.0201707,399.322439 L28.0201707,405.31034 C28.0201707,405.388556 28.0072862,405.463791 27.983472,405.534136 L34.452,405.533 L34.4522741,404.080624 C32.8893827,403.228134 31.8224598,401.535718 31.8224598,399.591592 C31.8224598,399.501299 31.8247612,399.41155 31.8293068,399.322403 Z M36.7533624,404.667975 C36.4156576,404.667975 36.0857819,404.632852 35.7669993,404.565968 L35.767,405.533 L38.0486401,405.533598 L38.0491412,404.490198 C37.6360813,404.606095 37.2016086,404.667975 36.7533624,404.667975 Z M36.7533624,396.019628 C34.8397252,396.019628 33.2832516,397.621787 33.2832516,399.591592 C33.2832516,401.561397 34.8397252,403.164307 36.7533624,403.164307 C38.6669995,403.164307 40.2242035,401.561397 40.2242035,399.591592 C40.2242035,397.621787 38.6669995,396.019628 36.7533624,396.019628 Z M35.8326928,391.466402 L35.109,391.466 L35.1099717,394.474071 C35.1099717,394.6096 35.0739166,394.73627 35.0111861,394.844363 C35.5528666,394.631708 36.1402098,394.51596 36.7533624,394.51596 C37.2016086,394.51596 37.6360813,394.57782 38.0491412,394.693683 L38.0486401,393.748124 L35.8326928,391.466402 Z M33.722,391.466 L28.607,391.466 L28.607201,393.75538 L33.7227139,393.75538 L33.722,391.466 Z" id="icon_slide_save"></path>
        </g>
    </g>
</svg>