<?xml version="1.0" encoding="UTF-8"?>
<svg width="16px" height="18px" viewBox="0 0 16 18" version="1.1" xmlns="http://www.w3.org/2000/svg" xmlns:xlink="http://www.w3.org/1999/xlink">
    <title>icon_slide_agreeement</title>
    <g id="biltyweb" stroke="none" stroke-width="1" fill="none" fill-rule="evenodd">
        <g id="slider" transform="translate(-25.000000, -286.000000)" fill="#FFFFFF">
            <path d="M34.0127941,286 C34.1969557,286 34.3740644,286.064089 34.5151244,286.181326 L40.6896344,291.319421 C40.8667431,291.46714 40.9701871,291.6852 40.9709708,291.916547 L40.9999833,301.425227 C41.0023174,302.052835 40.7593808,302.643708 40.3142581,303.087644 C39.8707027,303.533144 39.2790343,303.777778 38.6489663,303.777778 L29.8201772,303.777778 C28.5232088,303.777778 27.4691771,302.725774 27.4691771,301.433043 L27.469,300.607 L25.7836667,300.607306 C25.350299,300.607306 25,300.25794 25,299.825728 L25,288.920367 C25,288.488154 25.350299,288.138789 25.7836667,288.138789 L27.4790275,288.137819 C27.5883713,286.947195 28.5944368,286.01081 29.8154752,286.008597 L34.0112267,286 L34.0127941,286 Z M33.689,287.563 L29.8186099,287.571754 C29.3868095,287.572535 29.0365105,287.922682 29.0365105,288.353332 L29.0365105,301.433043 C29.0365105,301.864474 29.3875932,302.214621 29.8201772,302.214621 L38.6489663,302.214621 C38.858989,302.214621 39.056473,302.133337 39.204586,301.984837 C39.352699,301.837119 39.4334167,301.640161 39.4326387,301.430698 L39.405,292.726 L34.5506245,292.726653 C34.1227425,292.726653 33.7740108,292.385103 33.7669578,291.959143 L33.689,287.563 Z M36.5454481,299.044149 C36.9788158,299.044149 37.3291148,299.393515 37.3291148,299.825728 C37.3291148,300.25794 36.9788158,300.607306 36.5454481,300.607306 L31.9241656,300.607306 C31.4907979,300.607306 31.1404989,300.25794 31.1404989,299.825728 C31.1404989,299.393515 31.4907979,299.044149 31.9241656,299.044149 L36.5454481,299.044149 Z M27.469,289.701 L26.5673334,289.701945 L26.5673334,299.044149 L27.469,299.044 L27.469,289.701 Z M33.2691727,296.533017 C33.7025404,296.533017 34.0528394,296.882382 34.0528394,297.314595 C34.0528394,297.746808 33.7025404,298.096173 33.2691727,298.096173 L32.0615423,298.096173 C31.6281746,298.096173 31.2778756,297.746808 31.2778756,297.314595 C31.2778756,296.882382 31.6281746,296.533017 32.0615423,296.533017 L33.2691727,296.533017 Z M38.056,291.163 L35.28,288.853 L35.3201852,291.163496 L38.056,291.163 Z" id="icon_slide_agreeement"></path>
        </g>
    </g>
</svg>