<?xml version="1.0" encoding="UTF-8"?>
<svg width="18px" height="18px" viewBox="0 0 18 18" version="1.1" xmlns="http://www.w3.org/2000/svg" xmlns:xlink="http://www.w3.org/1999/xlink">
    <title>icon_scan</title>
    <g id="biltyweb" stroke="none" stroke-width="1" fill="none" fill-rule="evenodd">
        <g id="Dashboard_SupportService" transform="translate(-25.000000, -545.000000)" fill="#FFFFFF" fill-rule="nonzero">
            <g id="slider">
                <path d="M25,551.3 L25,547.7 C25,546.208831 26.2088312,545 27.7,545 L31.3,545 C31.7970563,545 32.2,545.402944 32.2,545.9 C32.2,546.397056 31.7970563,546.8 31.3,546.8 L27.7,546.8 C27.2029437,546.8 26.8,547.202944 26.8,547.7 L26.8,551.3 C26.8,551.797056 26.3970563,552.2 25.9,552.2 C25.4029437,552.2 25,551.797056 25,551.3 Z M40.3,545 L36.7,545 C36.2029437,545 35.8,545.402944 35.8,545.9 C35.8,546.397056 36.2029437,546.8 36.7,546.8 L40.3,546.8 C40.7970563,546.8 41.2,547.202944 41.2,547.7 L41.2,551.3 C41.2,551.797056 41.6029437,552.2 42.1,552.2 C42.5970563,552.2 43,551.797056 43,551.3 L43,547.7 C43,546.208831 41.7911688,545 40.3,545 Z M42.1,555.8 C41.6029437,555.8 41.2,556.202944 41.2,556.7 L41.2,560.3 C41.2,560.797056 40.7970563,561.2 40.3,561.2 L36.7,561.2 C36.2029437,561.2 35.8,561.602944 35.8,562.1 C35.8,562.597056 36.2029437,563 36.7,563 L40.3,563 C41.7911688,563 43,561.791169 43,560.3 L43,556.7 C43,556.202944 42.5970563,555.8 42.1,555.8 Z M31.3,561.2 L27.7,561.2 C27.2029437,561.2 26.8,560.797056 26.8,560.3 L26.8,556.7 C26.8,556.202944 26.3970563,555.8 25.9,555.8 C25.4029437,555.8 25,556.202944 25,556.7 L25,560.3 C25,561.791169 26.2088312,563 27.7,563 L31.3,563 C31.7970563,563 32.2,562.597056 32.2,562.1 C32.2,561.602944 31.7970563,561.2 31.3,561.2 Z M30.4,548.6 L37.6,548.6 C38.5941125,548.6 39.4,549.405887 39.4,550.4 L39.4,557.6 C39.4,558.594113 38.5941125,559.4 37.6,559.4 L30.4,559.4 C29.4058875,559.4 28.6,558.594113 28.6,557.6 L28.6,550.4 C28.6,549.405887 29.4058875,548.6 30.4,548.6 Z M37.6,550.4 L30.4,550.4 L30.4,557.6 L37.6,557.6 L37.6,550.4 Z" id="icon_scan"></path>
            </g>
        </g>
    </g>
</svg>