<?xml version="1.0" encoding="UTF-8"?>
<svg width="21px" height="21px" viewBox="0 0 21 21" version="1.1" xmlns="http://www.w3.org/2000/svg" xmlns:xlink="http://www.w3.org/1999/xlink">
    <title>Fill 1 Copy</title>
    <g id="biltyweb" stroke="none" stroke-width="1" fill="none" fill-rule="evenodd">
        <g id="Dashboard_SupportService" transform="translate(-22.000000, -68.000000)" fill="#FFFFFF">
            <path d="M31.5389692,81.0490721 L33.9515135,81.0490721 C35.4850832,81.0490721 36.7330788,82.2971616 36.7330788,83.8329148 L36.7330788,87 L41,87 L41,78.6688865 L32.4865558,70 L24,78.2717249 L24,87 L28.7574039,87 L28.7574039,83.8329148 C28.7574039,82.2971616 30.0053995,81.0490721 31.5389692,81.0490721 L31.5389692,81.0490721 Z M41.1195433,89 L36.7926125,89 C35.7555406,89 34.9121558,88.1550507 34.9121558,87.1181529 L34.9121558,83.9067808 C34.9121558,83.387391 34.4909335,82.9658573 33.9719275,82.9658573 L31.5254533,82.9658573 C31.0073875,82.9658573 30.585225,83.387391 30.585225,83.9067808 L30.585225,87.1181529 C30.585225,88.1550507 29.7418402,89 28.7047683,89 L23.8804567,89 C22.8443251,89 22,88.1550507 22,87.1181529 L22,78.070232 C22,77.6900989 22.1560779,77.3212569 22.4278039,77.0568574 L31.1747482,68.53209 C31.9137676,67.8113425 33.1050369,67.8245155 33.8271323,68.5612586 L42.5957018,77.4878003 C42.8570853,77.7559636 43,78.106928 43,78.4776519 L43,87.1181529 C43,88.1550507 42.1566152,89 41.1195433,89 L41.1195433,89 Z" id="Fill-1-Copy"></path>
        </g>
    </g>
</svg>