<?xml version="1.0" encoding="UTF-8"?>
<svg width="19px" height="18px" viewBox="0 0 19 18" version="1.1" xmlns="http://www.w3.org/2000/svg" xmlns:xlink="http://www.w3.org/1999/xlink">
    <title>icon_slide_myenq</title>
    <g id="biltyweb" stroke="none" stroke-width="1" fill="none" fill-rule="evenodd">
        <g id="slider" transform="translate(-23.000000, -235.000000)" fill="#FFFFFF">
            <path d="M35.0642135,235 C35.2462221,235 35.422786,235.064892 35.5627926,235.183598 L41.6911928,240.385265 C41.8669789,240.534042 41.9696504,240.755625 41.9704282,240.98987 L41.9999926,250.618455 C42.0015408,251.254715 41.7596405,251.852199 41.3186197,252.301696 C40.8775989,252.751985 40.2911268,252.999683 39.6665418,252.999683 L30.9021283,252.999683 C30.3282017,252.999683 29.7849542,252.783079 29.3670572,252.41216 C28.7415547,252.786105 28.0129044,253 27.2359776,253 C24.9002007,253 23,251.066686 23,248.690205 C23,246.706985 24.3233451,245.032947 26.1188252,244.533215 L26.1193471,237.956633 C26.1193471,237.519006 26.4670302,237.165264 26.8971616,237.165264 L28.5783987,237.165302 C28.686603,235.959429 29.6853493,235.010946 30.8982392,235.008705 L35.0626579,235 L35.0642135,235 Z M27.2359776,245.96394 C25.7581301,245.96394 24.5556289,247.187396 24.5556289,248.690205 C24.5556289,250.193806 25.7581301,251.417262 27.2359776,251.417262 C28.7130473,251.417262 29.9155484,250.193806 29.9155484,248.690205 C29.9155484,247.187396 28.7130473,245.96394 27.2359776,245.96394 Z M34.742,236.583 L30.9005727,236.591443 C30.4727747,236.592234 30.1243138,236.946767 30.1243138,237.382811 L30.1247928,245.541569 C30.9528642,246.328508 31.4711774,247.448783 31.4711774,248.690205 C31.4711774,249.689449 31.1353655,250.610343 30.5725034,251.342111 C30.6740068,251.390388 30.7863008,251.416946 30.9021283,251.416946 L39.6665418,251.416946 C39.874996,251.416946 40.0702275,251.334643 40.2172344,251.184283 C40.3642413,251.034715 40.445134,250.83529 40.4443562,250.623203 L40.416,241.81 L35.5984943,241.810045 C35.1738076,241.810045 34.8276802,241.464217 34.8206798,241.032921 L34.742,236.583 Z M27.1950646,249.60028 C27.4960788,249.60028 27.7395347,249.847978 27.7395347,250.153446 C27.7395347,250.459706 27.4960788,250.706613 27.1950646,250.706613 C26.8948282,250.706613 26.6513722,250.459706 26.6513722,250.153446 C26.6513722,249.847978 26.8948282,249.60028 27.1950646,249.60028 Z M37.5784988,248.206679 C38.0086302,248.206679 38.3563133,248.560421 38.3563133,248.998048 C38.3563133,249.435675 38.0086302,249.789417 37.5784988,249.789417 L32.9909491,249.789417 C32.5608177,249.789417 32.2131346,249.435675 32.2131346,248.998048 C32.2131346,248.560421 32.5608177,248.206679 32.9909491,248.206679 L37.5784988,248.206679 Z M27.1462178,246.641906 C27.5607929,246.626078 27.9372551,246.966367 27.9520336,247.403202 L27.99248,248.51745 C28.0088141,248.955077 27.673576,249.32148 27.2442224,249.337308 C27.2341108,249.338099 27.2247771,249.338099 27.2146655,249.338099 C26.7985347,249.338099 26.4531851,249.002559 26.4384066,248.576011 L26.3979603,247.461764 C26.382404,247.024137 26.7168642,246.656942 27.1462178,246.641906 Z M34.325912,245.66409 C34.7560434,245.66409 35.1037265,246.017832 35.1037265,246.455459 C35.1037265,246.893086 34.7560434,247.246828 34.325912,247.246828 L33.1280778,247.246828 C32.6979464,247.246828 32.3502633,246.893086 32.3502633,246.455459 C32.3502633,246.017832 32.6979464,245.66409 33.1280778,245.66409 L34.325912,245.66409 Z M28.568,238.748 L27.6749761,238.748002 L27.6744872,244.404114 C27.98359,244.436592 28.282922,244.503016 28.5688116,244.599651 L28.568,238.748 Z M36.322,237.889 L36.3623081,240.227307 L39.076,240.227 L36.322,237.889 Z" id="icon_slide_myenq"></path>
        </g>
    </g>
</svg>