<?xml version="1.0" encoding="UTF-8"?>
<svg width="26px" height="17px" viewBox="0 0 26 17" version="1.1" xmlns="http://www.w3.org/2000/svg" xmlns:xlink="http://www.w3.org/1999/xlink">
    <title>icon_slide_trips</title>
    <g id="biltyweb" stroke="none" stroke-width="1" fill="none" fill-rule="evenodd">
        <g id="slider" transform="translate(-20.000000, -129.000000)" fill="#FFFFFF">
            <path d="M29.0008153,146 C27.6962166,146 26.5837511,145.16321 26.1713565,143.998286 L26.1503628,144 L26.1503628,144 L22.8504648,144 C22.3803866,144 22.0004138,143.553 22.0004138,143 C22.0004138,142.447 22.3803866,142 22.8504648,142 L26.1503628,142 L26.1710064,142.001599 C26.5831211,140.836765 27.6958472,140 29.0008153,140 C30.305414,140 31.4173805,140.836291 31.8295638,142.00061 L36.1717768,142.000313 C36.5845946,140.835996 37.6970475,140 39.0004138,140 C40.4217287,140 41.6160132,140.99415 41.9235594,142.324099 C41.9966643,142.301735 42.0745779,142.29034 42.1551587,142.29034 L44.3127597,142.29034 L44.3127597,138.743501 L42.8537827,136.842359 L35.9344006,136.842359 C35.4686081,136.842359 35.0905735,136.46025 35.0905735,135.98753 L35.0905735,130.70966 L23.8442409,130.70966 C23.3784484,130.70966 23.0004138,130.327551 23.0004138,129.85483 C23.0004138,129.382964 23.3784484,129 23.8442409,129 L35.9344006,129 C36.401037,129 36.7782277,129.382964 36.7782277,129.85483 L36.7781913,131.004095 C36.8067927,131.001387 36.835808,131 36.8651688,131 L40.7574306,131 C41.0808489,131 41.3765951,131.170795 41.525333,131.44341 L43.903409,134.80115 C44.0218728,135.018153 44.0281488,135.262386 43.9423153,135.474075 L45.8223663,137.925429 C45.9379706,138.075024 46.0004138,138.259667 46.0004138,138.450294 L46.0004138,143.14517 C46.0004138,143.617891 45.6232231,144 45.1565868,144 L42.1551587,144 C42.0466845,144 41.9430437,143.979352 41.8478509,143.941717 C41.4527278,145.136314 40.3251892,146 39.0004138,146 C37.6974166,146 36.5852247,145.164477 36.1721277,144.001046 L31.8288629,144.000265 C31.4161211,145.164157 30.3046753,146 29.0008153,146 Z M39.0004138,141.510384 C38.1788684,141.510384 37.5106077,142.178729 37.5106077,143.000378 C37.5106077,143.822026 38.1788684,144.489616 39.0004138,144.489616 C39.8219593,144.489616 40.49022,143.822026 40.49022,143.000378 C40.49022,142.178729 39.8219593,141.510384 39.0004138,141.510384 Z M29.0008153,141.605566 C28.2316463,141.605566 27.6061947,142.230934 27.6061947,142.999197 C27.6061947,143.768263 28.2316463,144.394434 29.0008153,144.394434 C29.7691814,144.394434 30.394633,143.768263 30.394633,142.999197 C30.394633,142.230934 29.7691814,141.605566 29.0008153,141.605566 Z M26.0868363,137.670843 C26.5445492,137.670843 26.9145269,138.040821 26.9145269,138.498534 C26.9145269,138.956247 26.5445492,139.326224 26.0868363,139.326224 L20.8276906,139.326224 C20.3708054,139.326224 20,138.956247 20,138.498534 C20,138.040821 20.3708054,137.670843 20.8276906,137.670843 L26.0868363,137.670843 Z M36.778,132.636 L36.7782277,135.1327 L42.056,135.132 L40.2316596,132.642261 L36.8651688,132.642261 L36.778,132.636 Z M29.2125987,133 C29.6482605,133 30.0004138,133.447 30.0004138,134 C30.0004138,134.553 29.6482605,135 29.2125987,135 L23.788229,135 C23.3525672,135 23.0004138,134.553 23.0004138,134 C23.0004138,133.447 23.3525672,133 23.788229,133 L29.2125987,133 Z" id="icon_slide_trips"></path>
        </g>
    </g>
</svg>