<?xml version="1.0" encoding="UTF-8"?>
<svg width="18px" height="18px" viewBox="0 0 18 18" version="1.1" xmlns="http://www.w3.org/2000/svg" xmlns:xlink="http://www.w3.org/1999/xlink">
    <title>icon_fav</title>
    <g id="biltyweb" stroke="none" stroke-width="1" fill="none" fill-rule="evenodd">
        <g id="Dashboard_SupportService" transform="translate(-25.000000, -494.000000)" fill="#FFFFFF" fill-rule="nonzero">
            <g id="slider">
                <path d="M42.6697708,500.407622 C42.4640257,500.176736 42.1828683,500.026566 41.8765483,499.983929 L41.8765483,499.983288 L37.0922768,499.322457 L35.1990222,494.798969 C34.9225733,494.136857 34.1616704,493.8242 33.4995341,494.100623 C33.1838724,494.232413 32.9328874,494.483337 32.8011231,494.798969 L30.9078685,499.322457 L26.123597,499.983288 C25.4107967,500.082498 24.9133846,500.740769 25.0126033,501.453503 C25.055244,501.759794 25.2054282,502.040926 25.4363359,502.246652 L29.0409441,505.460717 L28.3003068,510.504206 C28.220073,511.016337 28.4553125,511.526584 28.8968999,511.798186 C29.332272,512.076568 29.8922891,512.066173 30.317001,511.771821 L34.000035,509.267402 L37.683069,511.774382 C38.2773643,512.177699 39.0861439,512.022933 39.4895355,511.428693 C39.6728302,511.158635 39.7479035,510.829556 39.6998008,510.506768 L38.9592012,505.461319 L42.5638094,502.247254 C43.1011124,501.768533 43.1485747,500.944875 42.6697708,500.407622 Z M37.8444407,504.73495 C37.683182,504.879019 37.6051706,505.094462 37.6367744,505.308362 L38.4082246,510.708012 L34.363272,507.958055 C34.1452092,507.809881 33.8587406,507.809881 33.6406778,507.958055 L29.5719188,510.691288 L30.3632955,505.305801 C30.394033,505.092767 30.3160593,504.878491 30.1556293,504.734988 L26.2983787,501.258624 L31.4465275,500.548301 C31.6719356,500.517227 31.8640824,500.369317 31.9518123,500.15941 L34.0077193,495.285601 C34.0100548,495.288463 34.0117875,495.29174 34.0128799,495.295243 L36.0475796,500.156849 C36.1353095,500.366756 36.327494,500.514666 36.5528644,500.545739 L41.7074546,501.287551 L37.8444407,504.73495 Z" id="icon_fav"></path>
            </g>
        </g>
    </g>
</svg>