<?xml version="1.0" encoding="UTF-8"?>
<svg width="31px" height="15px" viewBox="0 0 31 15" version="1.1" xmlns="http://www.w3.org/2000/svg" xmlns:xlink="http://www.w3.org/1999/xlink">
    <title>4544854_business_comerce_delivery_shop_truck_icon</title>
    <g id="biltyweb" stroke="none" stroke-width="1" fill="none" fill-rule="evenodd">
        <g id="Notification" transform="translate(-1002.000000, -156.000000)" fill="#33416A" fill-rule="nonzero">
            <g id="4544854_business_comerce_delivery_shop_truck_icon" transform="translate(1002.000000, 156.000000)">
                <path d="M23.2461538,0 C23.6246154,0 23.9384615,0.318949343 23.9384615,0.703564728 L23.9384615,0.703564728 L23.9384615,2.56097561 L28.2307692,2.56097561 C28.4523077,2.56097561 28.6646154,2.67354597 28.7938462,2.86116323 L28.7938462,2.86116323 L30.8707692,5.88180113 C30.9538462,5.99437148 31,6.13508443 31,6.28517824 L31,6.28517824 L31,12.0731707 C31,12.4577861 30.6861538,12.7767355 30.3076923,12.7767355 L30.3076923,12.7767355 L28.8769231,12.7767355 C28.5169231,14.0619137 27.3538462,15 25.9876923,15 C24.6215385,15 23.4584615,14.0525328 23.0984615,12.7767355 L23.0984615,12.7767355 L15.4276923,12.7767355 C15.0676923,14.0619137 13.9046154,15 12.5384615,15 C11.1723077,15 10.0092308,14.0525328 9.64923077,12.7767355 L9.64923077,12.7767355 L7.69230769,12.7767355 C7.31384615,12.7767355 7,12.4577861 7,12.0731707 L7,12.0731707 L7,0.703564728 C7,0.318949343 7.31384615,0 7.69230769,0 L7.69230769,0 Z M12.5384615,10.2908068 C11.6430769,10.2908068 10.9138462,11.0318949 10.9138462,11.9418386 C10.9138462,12.8517824 11.6430769,13.5928705 12.5384615,13.5928705 C13.4338462,13.5928705 14.1630769,12.8517824 14.1630769,11.9418386 C14.1630769,11.0318949 13.4338462,10.2908068 12.5384615,10.2908068 Z M25.9969231,10.2908068 C25.1015385,10.2908068 24.3723077,11.0318949 24.3723077,11.9418386 C24.3723077,12.8517824 25.1015385,13.5928705 25.9969231,13.5928705 C26.8923077,13.5928705 27.6215385,12.8517824 27.6215385,11.9418386 C27.6215385,11.0318949 26.8923077,10.2908068 25.9969231,10.2908068 Z M22.5538462,1.41651032 L8.38461538,1.41651032 L8.38461538,11.3789869 L9.58461538,11.3789869 C9.84307692,9.96247655 11.0707692,8.89305816 12.5384615,8.89305816 C14.0061538,8.89305816 15.2246154,9.96247655 15.4923077,11.3789869 L15.4923077,11.3789869 L22.5538462,11.3789869 L22.5538462,1.41651032 Z M25.1292308,3.97748593 L23.9384615,3.97748593 L23.9384615,9.72795497 C24.4738462,9.2120075 25.2030769,8.89305816 25.9969231,8.89305816 C27.4646154,8.89305816 28.6830769,9.96247655 28.9507692,11.3789869 L28.9507692,11.3789869 L29.6338462,11.3789869 L29.6338462,7.89868668 L25.8215385,7.89868668 C25.4430769,7.89868668 25.1292308,7.57973734 25.1292308,7.19512195 L25.1292308,7.19512195 L25.1292308,3.97748593 Z M5.11904762,8.85714286 C5.45238095,8.85714286 5.71428571,9.11619048 5.71428571,9.42857143 C5.71428571,9.74095238 5.44444444,10 5.11904762,10 L5.11904762,10 L4.4047619,10 C4.07936508,10 3.80952381,9.74095238 3.80952381,9.42857143 C3.80952381,9.11619048 4.07936508,8.85714286 4.4047619,8.85714286 L4.4047619,8.85714286 Z M5.0174216,6.57142857 C5.40766551,6.57142857 5.71428571,6.83047619 5.71428571,7.14285714 C5.71428571,7.4552381 5.39837398,7.71428571 5.0174216,7.71428571 L5.0174216,7.71428571 L2.60162602,7.71428571 C2.22067364,7.71428571 1.9047619,7.4552381 1.9047619,7.14285714 C1.9047619,6.83047619 2.22067364,6.57142857 2.60162602,6.57142857 L2.60162602,6.57142857 Z M27.88,3.97748593 L26.5230769,3.97748593 L26.5230769,6.49155722 L29.6246154,6.49155722 L27.88,3.97748593 Z M5.0788002,4.28571429 C5.43467209,4.28571429 5.71428571,4.5447619 5.71428571,4.85714286 C5.71428571,5.16952381 5.42619895,5.42857143 5.0788002,5.42857143 L5.0788002,5.42857143 L1.58786646,5.42857143 C1.24046772,5.42857143 0.952380952,5.16952381 0.952380952,4.85714286 C0.952380952,4.5447619 1.24046772,4.28571429 1.58786646,4.28571429 L1.58786646,4.28571429 Z M5.08863399,2 C5.43065693,2 5.71428571,2.25904762 5.71428571,2.57142857 C5.71428571,2.88380952 5.43065693,3.14285714 5.08863399,3.14285714 L5.08863399,3.14285714 L0.625651721,3.14285714 C0.28362878,3.14285714 0,2.88380952 0,2.57142857 C0,2.25904762 0.28362878,2 0.625651721,2 L0.625651721,2 Z" id="Combined-Shape"></path>
            </g>
        </g>
    </g>
</svg>