<?xml version="1.0" encoding="UTF-8"?>
<svg width="24px" height="24px" viewBox="0 0 24 24" version="1.1" xmlns="http://www.w3.org/2000/svg" xmlns:xlink="http://www.w3.org/1999/xlink">
    <title>Fill 1 Copy</title>
    <g id="Symbols" stroke="none" stroke-width="1" fill="none" fill-rule="evenodd">
        <g id="Fill-1-Copy" transform="translate(-3.000000, -1.000000)" fill="#414757">
            <path d="M13.8862324,15.9531545 L16.6822028,15.9531545 C18.459503,15.9531545 19.9058428,17.3994884 19.9058428,19.1791781 L19.9058428,22.8493176 L24.8509066,22.8493176 L24.8509066,13.1949043 L14.9844191,3.14906676 L5.14909335,12.7346582 L5.14909335,22.8493176 L10.6625923,22.8493176 L10.6625923,19.1791781 C10.6625923,17.3994884 12.1089322,15.9531545 13.8862324,15.9531545 L13.8862324,15.9531545 Z M24.8509066,25 L19.9058428,25 C18.7206179,25 17.7567495,24.0343436 17.7567495,22.8493176 L17.7567495,19.1791781 C17.7567495,18.5855897 17.2753526,18.1038369 16.6822028,18.1038369 L13.8862324,18.1038369 C13.2941572,18.1038369 12.8116857,18.5855897 12.8116857,19.1791781 L12.8116857,22.8493176 C12.8116857,24.0343436 11.8478173,25 10.6625923,25 L5.14909335,25 C3.96494291,25 3,24.0343436 3,22.8493176 L3,12.5088366 C3,12.0743987 3.17837475,11.652865 3.48891874,11.3506941 L13.4854265,1.60810282 C14.3300201,0.784391459 15.6914708,0.799446236 16.5167226,1.6414384 L26.5379449,11.8432004 C26.8366689,12.1496726 27,12.5507749 27,12.9744593 L27,22.8493176 C27,24.0343436 26.0361316,25 24.8509066,25 L24.8509066,25 Z"></path>
        </g>
    </g>
</svg>