<?xml version="1.0" encoding="UTF-8"?>
<svg width="17px" height="17px" viewBox="0 0 17 17" version="1.1" xmlns="http://www.w3.org/2000/svg" xmlns:xlink="http://www.w3.org/1999/xlink">
    <title>icon_slide_payment</title>
    <g id="biltyweb" stroke="none" stroke-width="1" fill="none" fill-rule="evenodd">
        <g id="slider" transform="translate(-24.000000, -338.000000)" fill="#FFFFFF">
            <path d="M24,339.773438 C24,339.373774 24.1958568,339.044599 24.4477031,339.004173 C24.8734982,338.396407 25.5621017,338 26.3377313,338 L38.2417349,338 C38.6610555,338 39,338.354137 39,338.792254 C39,339.229577 38.6610555,339.584507 38.2417349,339.584507 L26.3377313,339.584507 C25.8842887,339.584507 25.5165302,339.96875 25.5165302,340.442518 C25.5165302,340.915493 25.8842887,341.300528 26.3377313,341.300528 L38.2417349,341.300528 C38.6610555,341.300528 39,341.654665 39,342.092782 L39.000651,346.046156 C40.1389347,346.270416 41,347.285087 41,348.499593 C41,349.714816 40.1389347,350.729572 39.000651,350.953842 L39,354.23514 C39,354.658108 38.6610555,355 38.2417349,355 L26.2747953,355 C25.0198665,355 24,353.970498 24,352.70542 L24,339.773438 Z M25.5161461,342.729356 L25.5165302,352.70542 C25.5165302,353.127622 25.8562329,353.47028 26.2747953,353.47028 L37.4834698,353.47028 L37.483,351 L35.4742517,351 C34.1101481,351 33,349.878931 33,348.499593 C33,347.121069 34.1101481,346 35.4742517,346 L37.483,346 L37.4834698,342.885035 L26.3377313,342.885035 C26.048754,342.885035 25.7718567,342.82997 25.5161461,342.729356 Z M38.5257483,347.629461 L35.4742517,347.629461 C34.9985891,347.629461 34.6124156,348.019716 34.6124156,348.499593 C34.6124156,348.979469 34.9985891,349.370539 35.4742517,349.370539 L38.5257483,349.370539 C39.0006047,349.370539 39.3875844,348.979469 39.3875844,348.499593 C39.3875844,348.019716 39.0006047,347.629461 38.5257483,347.629461 Z" id="icon_slide_payment"></path>
        </g>
    </g>
</svg>