<?xml version="1.0" encoding="UTF-8"?>
<svg width="22px" height="18px" viewBox="0 0 22 18" version="1.1" xmlns="http://www.w3.org/2000/svg" xmlns:xlink="http://www.w3.org/1999/xlink">
    <title>icon_slide_companyDash</title>
    <g id="biltyweb" stroke="none" stroke-width="1" fill="none" fill-rule="evenodd">
        <g id="slider" transform="translate(-21.000000, -79.000000)" fill="#FE9103">
            <path d="M32.4108458,79.1597487 C32.6144364,79.3087262 32.7333333,79.5412572 32.7333333,79.7879766 L32.7333333,82.0510155 C32.7333333,82.4869126 32.3693133,82.8392562 31.9189709,82.8392562 C31.4694429,82.8392562 31.1046086,82.4869126 31.1046086,82.0510155 L31.1046086,80.8284542 L24.0953914,82.7399379 L24.095,95.56 L32,95.56 L32,84.1150715 C32,83.675397 32.3485238,83.32 32.7796952,83.32 L40.7536381,83.32 C41.1840299,83.32 41.5333333,83.675397 41.5333333,84.1150715 L41.5333333,91.5338835 C41.5333333,91.9735581 41.1840299,92.328955 40.7536381,92.328955 C40.3224667,92.328955 39.9739429,91.9735581 39.9739429,91.5338835 L39.9739429,84.910143 L33.5593904,84.910143 L33.559,95.56 L42.2166916,95.56 C42.6498611,95.56 43,95.88184 43,96.28 C43,96.67816 42.6498611,97 42.2166916,97 L21.7833084,97 C21.3501389,97 21,96.67816 21,96.28 C21,95.88184 21.3501389,95.56 21.7833084,95.56 L22.466,95.56 L22.4666667,82.1432397 C22.4666667,81.7901079 22.7093467,81.4811175 23.0603368,81.3841639 L31.6982787,79.0289008 C31.9450305,78.9634768 32.2072552,79.009983 32.4108458,79.1597487 Z M29.7765394,92.68 C30.1950464,92.68 30.5333333,93.00184 30.5333333,93.4 C30.5333333,93.79816 30.1950464,94.12 29.7765394,94.12 L26.8901273,94.12 C26.4716202,94.12 26.1333333,93.79816 26.1333333,93.4 C26.1333333,93.00184 26.4716202,92.68 26.8901273,92.68 L29.7765394,92.68 Z M37.8432061,92.68 C38.2617131,92.68 38.6,93.00184 38.6,93.4 C38.6,93.79816 38.2617131,94.12 37.8432061,94.12 L34.9567939,94.12 C34.5382869,94.12 34.2,93.79816 34.2,93.4 C34.2,93.00184 34.5382869,92.68 34.9567939,92.68 L37.8432061,92.68 Z M29.7765394,89.8 C30.1950464,89.8 30.5333333,90.12184 30.5333333,90.52 C30.5333333,90.91816 30.1950464,91.24 29.7765394,91.24 L26.8901273,91.24 C26.4716202,91.24 26.1333333,90.91816 26.1333333,90.52 C26.1333333,90.12184 26.4716202,89.8 26.8901273,89.8 L29.7765394,89.8 Z M37.8432061,89.8 C38.2617131,89.8 38.6,90.12184 38.6,90.52 C38.6,90.91816 38.2617131,91.24 37.8432061,91.24 L34.9567939,91.24 C34.5382869,91.24 34.2,90.91816 34.2,90.52 C34.2,90.12184 34.5382869,89.8 34.9567939,89.8 L37.8432061,89.8 Z M29.7765394,86.2 C30.1950464,86.2 30.5333333,86.52184 30.5333333,86.92 C30.5333333,87.31816 30.1950464,87.64 29.7765394,87.64 L26.8901273,87.64 C26.4716202,87.64 26.1333333,87.31816 26.1333333,86.92 C26.1333333,86.52184 26.4716202,86.2 26.8901273,86.2 L29.7765394,86.2 Z M37.8432061,86.2 C38.2617131,86.2 38.6,86.52184 38.6,86.92 C38.6,87.31816 38.2617131,87.64 37.8432061,87.64 L34.9567939,87.64 C34.5382869,87.64 34.2,87.31816 34.2,86.92 C34.2,86.52184 34.5382869,86.2 34.9567939,86.2 L37.8432061,86.2 Z M29.7765394,83.32 C30.1950464,83.32 30.5333333,83.64184 30.5333333,84.04 C30.5333333,84.43816 30.1950464,84.76 29.7765394,84.76 L26.8901273,84.76 C26.4716202,84.76 26.1333333,84.43816 26.1333333,84.04 C26.1333333,83.64184 26.4716202,83.32 26.8901273,83.32 L29.7765394,83.32 Z" id="icon_slide_companyDash"></path>
        </g>
    </g>
</svg>