<?xml version="1.0" encoding="UTF-8"?>
<svg width="18px" height="17px" viewBox="0 0 18 17" version="1.1" xmlns="http://www.w3.org/2000/svg" xmlns:xlink="http://www.w3.org/1999/xlink">
    <title>icon_report</title>
    <g id="biltyweb" stroke="none" stroke-width="1" fill="none" fill-rule="evenodd">
        <g id="Dashboard_SupportService" transform="translate(-22.000000, -441.000000)" fill="#FFFFFF" fill-rule="nonzero">
            <g id="slider">
                <path d="M39.0689655,455.275862 C39.5831617,455.275862 40,455.6927 40,456.206897 C40,456.721093 39.5831617,457.137931 39.0689655,457.137931 L39.0689655,457.137931 L22.9310345,457.137931 C22.4168383,457.137931 22,456.721093 22,456.206897 C22,455.6927 22.4168383,455.275862 22.9310345,455.275862 L22.9310345,455.275862 Z M39.0689655,441 C39.5831617,441 40,441.416838 40,441.931034 L40,441.931034 L39.9993017,446.275862 C39.9993017,446.790058 39.5824634,447.206897 39.0682672,447.206897 C38.5540711,447.206897 38.1372328,446.790058 38.1372328,446.275862 L38.1372328,446.275862 L38.1375819,444.179134 L32.2790474,450.037668 C32.1044432,450.212281 31.8676237,450.310379 31.6206897,450.310379 C31.3737556,450.310379 31.1369361,450.212281 30.9623319,450.037668 L30.9623319,450.037668 L28.8275862,447.902884 L23.5893922,453.141116 C23.414957,453.315978 23.1780248,453.41411 22.9310345,453.413794 C22.5544556,453.413794 22.2149511,453.186967 22.0708388,452.839055 C21.9267264,452.491142 22.0063884,452.090675 22.2726767,451.824401 L22.2726767,451.824401 L28.1692284,445.927849 C28.3438327,445.753236 28.5806522,445.655138 28.8275862,445.655138 C29.0745202,445.655138 29.3113398,445.753236 29.485944,445.927849 L29.485944,445.927849 L31.6206897,448.062634 L36.8212543,442.862069 L34.7241379,442.862069 C34.2099418,442.862069 33.7931034,442.445231 33.7931034,441.931034 C33.7931034,441.416838 34.2099418,441 34.7241379,441 L34.7241379,441 Z" id="icon_report"></path>
            </g>
        </g>
    </g>
</svg>