<?xml version="1.0" encoding="UTF-8"?>
<svg width="21px" height="18px" viewBox="0 0 21 18" version="1.1" xmlns="http://www.w3.org/2000/svg" xmlns:xlink="http://www.w3.org/1999/xlink">
    <title>icon_slide_Biltys</title>
    <g id="biltyweb" stroke="none" stroke-width="1" fill="none" fill-rule="evenodd">
        <g id="slider" transform="translate(-22.000000, -182.000000)" fill="#FFFFFF">
            <path d="M36.6410213,182.188731 L42.6956599,187.389552 C42.8693302,187.539073 42.970766,187.759796 42.9715344,187.993967 L42.9999837,197.619521 C43.0022725,198.253999 42.7632838,198.852085 42.3275711,199.301441 C41.8926269,199.75238 41.3124451,200 40.6946092,200 L36.1622753,200 C35.737321,200 35.3938227,199.646369 35.3938227,199.20888 C35.3938227,198.771391 35.737321,198.417761 36.1622753,198.417761 L40.6946092,198.417761 C40.9005545,198.417761 41.0942046,198.335484 41.2394421,198.185171 C41.3839112,198.03565 41.4638303,197.836288 41.4630618,197.625059 L41.436,188.813 L36.6762933,188.813804 C36.2567182,188.813804 35.9147567,188.468085 35.9078406,188.036925 L35.831,183.588 L32.034916,183.596133 C31.6130355,183.596924 31.2680003,183.952136 31.2680003,184.387252 L31.2680003,187.231328 C31.2680003,187.668817 30.9245019,188.022447 30.4995476,188.022447 C30.0753617,188.022447 29.7310949,187.668817 29.7310949,187.231328 L29.731,185.752 L28.8473744,185.752488 L28.8473744,187.121125 C28.8473744,187.558614 28.503876,187.912244 28.0789217,187.912244 C27.6539674,187.912244 27.310469,187.558614 27.310469,187.121125 L27.310469,184.961368 C27.310469,184.523879 27.6539674,184.170248 28.0789217,184.170248 L29.7406917,184.170056 C29.8475913,182.965811 30.834276,182.01688 32.0318422,182.013893 L36.1469063,182.005191 C36.3190397,181.976711 36.5019314,182.069272 36.6410213,182.188731 Z M27.7825295,199.175574 C26.7018323,199.175574 25.8035585,198.353278 25.6472549,197.285329 L25.6287872,197.286697 L25.6287872,197.286697 L25.1584942,197.286697 C24.7335398,197.286697 24.3900415,196.933066 24.3900415,196.495577 C24.3900415,196.058088 24.7335398,195.704457 25.1584942,195.704457 L25.6287872,195.704457 C25.743879,195.704457 25.8529959,195.730396 25.9509323,195.776915 C26.3320602,195.148828 27.0107796,194.729481 27.7825295,194.729481 C28.5236413,194.729481 29.1789624,195.116193 29.5680352,195.704028 L30.4276145,195.704028 C30.8166873,195.116193 31.4720084,194.729481 32.2131202,194.729481 C32.9641687,194.729481 33.6271106,195.126633 34.0141317,195.72778 C34.0728526,195.712681 34.1357638,195.704457 34.2005694,195.704457 L35.21339,195.704457 L35.21339,194.190254 L34.7638452,193.596123 L31.876,193.596123 C31.4510457,193.596123 31.1075474,193.242493 31.1075474,192.805003 L31.1075474,190.369146 L25.1581868,190.369146 C24.7332325,190.369146 24.3897341,190.015515 24.3897341,189.578026 C24.3897341,189.140537 24.7332325,188.786906 25.1581868,188.786906 L31.876,188.786906 C32.3009544,188.786906 32.6444527,189.140537 32.6444527,189.578026 L32.644,189.668 L33.8390892,189.668688 C34.1195744,189.668688 34.3770061,189.826121 34.5114853,190.077697 L35.5450541,192.004865 C35.5762892,192.062818 35.5996758,192.123047 35.6155787,192.184263 C35.6634349,192.22291 35.7074343,192.268305 35.7459277,192.319256 L36.5881518,193.433153 C36.6934298,193.57239 36.7502953,193.743271 36.7502953,193.9189 L36.7502953,196.495577 C36.7502953,196.933066 36.406797,197.286697 35.9818426,197.286697 L34.3482468,197.286339 C34.1915252,198.353796 33.293477,199.175574 32.2131202,199.175574 C31.1327635,199.175574 30.2347152,198.353796 30.0779936,197.286339 L29.9176561,197.286339 C29.7609345,198.353796 28.8628862,199.175574 27.7825295,199.175574 Z M32.2131202,196.311721 C31.8703903,196.311721 31.5906735,196.598897 31.5906735,196.953319 C31.5906735,197.306158 31.8703903,197.593335 32.2131202,197.593335 C32.5558501,197.593335 32.8355669,197.306158 32.8355669,196.953319 C32.8355669,196.598897 32.5558501,196.311721 32.2131202,196.311721 Z M27.7825295,196.311721 C27.4397996,196.311721 27.1600828,196.598897 27.1600828,196.953319 C27.1600828,197.306158 27.4397996,197.593335 27.7825295,197.593335 C28.1252594,197.593335 28.4049762,197.306158 28.4049762,196.953319 C28.4049762,196.598897 28.1252594,196.311721 27.7825295,196.311721 Z M25.1544982,193.68726 C25.5794525,193.68726 25.9229509,194.040891 25.9229509,194.47838 C25.9229509,194.915869 25.5794525,195.2695 25.1544982,195.2695 L22.7684527,195.2695 C22.3434983,195.2695 22,194.915869 22,194.47838 C22,194.040891 22.3434983,193.68726 22.7684527,193.68726 L25.1544982,193.68726 Z M28.0669338,191.313901 C28.4918882,191.313901 28.8353865,191.667532 28.8353865,192.105021 C28.8353865,192.54251 28.4918882,192.89614 28.0669338,192.89614 L24.5266724,192.89614 C24.1017181,192.89614 23.7582197,192.54251 23.7582197,192.105021 C23.7582197,191.667532 24.1017181,191.313901 24.5266724,191.313901 L28.0669338,191.313901 Z M33.3857021,191.250928 L32.644,191.25 L32.6444527,192.013884 L33.794,192.013 L33.3857021,191.250928 Z M37.39,184.893 L37.4309138,187.231565 L40.112,187.231 L37.39,184.893 Z" id="icon_slide_Biltys"></path>
        </g>
    </g>
</svg>