<?xml version="1.0" encoding="UTF-8"?>
<svg width="18px" height="17px" viewBox="0 0 18 17" version="1.1" xmlns="http://www.w3.org/2000/svg" xmlns:xlink="http://www.w3.org/1999/xlink">
    <title>icon_slide_CustomerCare</title>
    <g id="biltyweb" stroke="none" stroke-width="1" fill="none" fill-rule="evenodd">
        <g id="Dashboard_SupportService" transform="translate(-27.000000, -597.000000)" fill="#FFFFFF" fill-rule="nonzero">
            <g id="slider">
                <path d="M30.6,603.184684 C30.9313709,603.184684 31.2,603.450585 31.2,603.77859 L31.2,603.77859 L31.2,608.529842 C31.2,608.857847 30.9313709,609.123748 30.6,609.123748 L30.6,609.123748 L30.3,609.123748 L30.3,610.608514 C30.3,611.756534 31.240202,612.687187 32.4,612.687187 L32.4,612.687187 L33.654,612.687187 C33.7808245,612.332112 34.1195235,612.094339 34.5,612.093281 L34.5,612.093281 L37.5,612.093281 C37.9970563,612.093281 38.4,612.492132 38.4,612.98414 C38.4,613.476149 37.9970563,613.875 37.5,613.875 L37.5,613.875 L34.5,613.875 C34.1195235,613.873942 33.7808245,613.636169 33.654,613.281094 L33.654,613.281094 L32.4,613.281094 C30.9088312,613.281094 29.7,612.084539 29.7,610.608514 L29.7,610.608514 L29.7,609.123748 L29.4,609.123748 C29.0686292,609.123748 28.8,608.857847 28.8,608.529842 L28.8,608.529842 L28.8,603.77859 C28.8,603.450585 29.0686292,603.184684 29.4,603.184684 L29.4,603.184684 Z M42.6666667,603.184684 C42.9612185,603.184684 43.2,603.423465 43.2,603.718017 L43.2,608.590415 C43.2,608.884967 42.9612185,609.123748 42.6666667,609.123748 L41.3333333,609.123748 C41.0387815,609.123748 40.8,608.884967 40.8,608.590415 L40.8,603.718017 C40.8,603.423465 41.0387815,603.184684 41.3333333,603.184684 L42.6666667,603.184684 Z M28.2,604.075543 L28.2,608.232889 L27.9,608.232889 C27.4029437,608.232889 27,607.834037 27,607.342029 L27,607.342029 L27,604.966403 C27,604.474395 27.4029437,604.075543 27.9,604.075543 L27.9,604.075543 L28.2,604.075543 Z M44.1,604.075543 C44.5970563,604.075543 45,604.474395 45,604.966403 L45,604.966403 L45,607.342029 C45,607.834037 44.5970563,608.232889 44.1,608.232889 L44.1,608.232889 L43.8,608.232889 L43.8,604.075543 Z M35.994,597 C39.2714036,597 42.0523285,599.380574 42.525,602.590777 L42.525,602.590777 L41.325,602.590777 C40.8871554,600.017556 38.6362372,598.13338 36,598.13338 C33.3637628,598.13338 31.1128446,600.017556 30.675,602.590777 L30.675,602.590777 L29.463,602.590777 C29.9356715,599.380574 32.7165964,597 35.994,597 Z" id="icon_slide_CustomerCare"></path>
            </g>
        </g>
    </g>
</svg>